<svg id="Layer_1" data-name="Layer 1" xmlns="http://www.w3.org/2000/svg" xmlns:xlink="http://www.w3.org/1999/xlink" viewBox="0 0 225.24 64"><defs><style>.cls-1,.cls-4{fill:#fff;}.cls-2{fill:url(#linear-gradient);}.cls-3{fill:none;}.cls-4{fill-rule:evenodd;}</style><linearGradient id="linear-gradient" x1="-391.72" y1="537.45" x2="-390.85" y2="536.58" gradientTransform="matrix(64, 0, 0, -64, 25074, 34401)" gradientUnits="userSpaceOnUse"><stop offset="0" stop-color="#66afff"/><stop offset="1" stop-color="#30a4fc"/></linearGradient></defs><g id="coinvert-white"><g id="coinvert"><path class="cls-1" d="M88,42.18a13,13,0,0,0,4.14-.66,8.57,8.57,0,0,0,3.22-1.82h0L94,36.29a9.68,9.68,0,0,1-2.63,1.55,7.59,7.59,0,0,1-2.75.54,5.27,5.27,0,0,1-4.13-1.62A6.9,6.9,0,0,1,83,32a6.91,6.91,0,0,1,1.47-4.75,5.21,5.21,0,0,1,4.11-1.64,7.78,7.78,0,0,1,2.75.52A9.36,9.36,0,0,1,94,27.69h0l1.36-3.41a7.83,7.83,0,0,0-3.12-1.82,12.55,12.55,0,0,0-4-.66,10.66,10.66,0,0,0-5.33,1.3,9,9,0,0,0-3.56,3.62A11.15,11.15,0,0,0,78,32.11a11.2,11.2,0,0,0,1.2,5.32,8.46,8.46,0,0,0,3.45,3.51A10.8,10.8,0,0,0,88,42.18Zm19.49,0a10.54,10.54,0,0,0,5.19-1.24,8.54,8.54,0,0,0,3.47-3.55,11.38,11.38,0,0,0,1.22-5.4,11.45,11.45,0,0,0-1.22-5.41A8.58,8.58,0,0,0,112.64,23a10.54,10.54,0,0,0-5.19-1.24A10.72,10.72,0,0,0,102.2,23a8.51,8.51,0,0,0-3.49,3.54A11.45,11.45,0,0,0,97.49,32a11.38,11.38,0,0,0,1.22,5.4,8.47,8.47,0,0,0,3.49,3.55A10.72,10.72,0,0,0,107.45,42.18Zm0-3.8a4.5,4.5,0,0,1-3.74-1.61,7.45,7.45,0,0,1-1.3-4.78,7.53,7.53,0,0,1,1.32-4.79,5.08,5.08,0,0,1,7.48,0A7.53,7.53,0,0,1,112.48,32a7.51,7.51,0,0,1-1.29,4.78A4.56,4.56,0,0,1,107.41,38.38Zm16.48-19.56a2.7,2.7,0,1,0-2.69-2.69A2.7,2.7,0,0,0,123.89,18.82Zm2.43,23V22.3h-4.81V41.87Zm10.11,0V30.79a5.15,5.15,0,0,1,1.36-3.74,4.71,4.71,0,0,1,3.56-1.41,3.38,3.38,0,0,1,2.75,1.06,5.21,5.21,0,0,1,.89,3.39V41.87h4.85v-12q0-8.05-7-8.06a7.77,7.77,0,0,0-3.89,1,7,7,0,0,0-2.73,2.75V22.3h-4.57V41.87Zm28.52,0,8.56-19.53h-4.8l-5.74,14-5.62-14h-5.07l8.44,19.53Zm20,.31A13,13,0,0,0,189,41.5a10.92,10.92,0,0,0,3.43-1.8h0l-1.4-3.33a9.66,9.66,0,0,1-6,2.09A5.55,5.55,0,0,1,180.89,37a7.14,7.14,0,0,1-1.57-4.63h13.49V31.6a10.41,10.41,0,0,0-2.35-7.19,8.13,8.13,0,0,0-6.37-2.61,9.32,9.32,0,0,0-4.92,1.3,8.8,8.8,0,0,0-3.37,3.62A11.41,11.41,0,0,0,174.6,32a10,10,0,0,0,2.75,7.44A10.27,10.27,0,0,0,184.9,42.18Zm3.68-12.44h-9.1a5.55,5.55,0,0,1,1.57-3.31,4.42,4.42,0,0,1,3.15-1.14,4.08,4.08,0,0,1,3.05,1.12,5.43,5.43,0,0,1,1.33,3.33Zm13.14,12.13V31.29A5.4,5.4,0,0,1,203,27.5a4.8,4.8,0,0,1,3.77-1.44,6.68,6.68,0,0,1,2.56.51l0-4.42a5.37,5.37,0,0,0-1.94-.31,6.52,6.52,0,0,0-3.6,1,5.87,5.87,0,0,0-2.33,2.9V22.3h-4.61V41.87Zm20.38.27a9.12,9.12,0,0,0,3.1-.46h0V37.84a6.73,6.73,0,0,1-1.94.31q-3.21,0-3.21-3.45h0V26h5.19V22.3h-5.19V15.91l-4.85,1.63V22.3h-3.76V26h3.76v9A7.46,7.46,0,0,0,217,40.28,6.77,6.77,0,0,0,222.1,42.14Z"/><g id="brand"><path id="bg" class="cls-2" d="M0,49.6A14.45,14.45,0,0,0,14.49,64h35A14.45,14.45,0,0,0,64,49.59V14.41A14.45,14.45,0,0,0,49.51,0h-35A14.45,14.45,0,0,0,0,14.41Z"/><g id="icon"><rect id="mask" class="cls-3" x="10.5" y="10.5" width="43" height="43"/><path id="shape" class="cls-4" d="M34,10.5h.12a1,1,0,0,1,.87.87v2.88A18,18,0,0,1,46.25,21L40,26l-.15-.2a10,10,0,1,0-.19,12.63l.19-.23L40,38l6.25,5A18,18,0,0,1,35,49.75v2.87a1,1,0,0,1-.87.87H29.88a1,1,0,0,1-.87-.87V49.75a18,18,0,0,1,0-35.5V11.38a1,1,0,0,1,.87-.88Z"/></g></g></g></g></svg>